<svg width="360" height="159" viewBox="0 0 360 159" fill="none" xmlns="http://www.w3.org/2000/svg">
<path d="M302.475 158.703C300.782 158.703 299.171 158.264 297.641 157.385C296.111 156.506 294.874 155.301 293.93 153.771C292.074 150.484 291.033 147.066 290.805 143.518C290.674 142.183 290.609 140.848 290.609 139.514C290.609 137.398 290.74 135.298 291 133.215C292.855 119.641 298.487 107.613 307.895 97.1309C312.387 92.1504 317.253 87.5443 322.494 83.3125C323.438 82.5312 324.496 81.7337 325.668 80.9199C327.328 79.748 328.923 78.5111 330.453 77.209C332.016 75.8743 333.188 74.4421 333.969 72.9121C334.229 72.3262 334.408 71.3984 334.506 70.1289L334.75 67.248C335.043 64.9368 335.189 62.6419 335.189 60.3633L335.336 58.752C335.434 57.9382 335.482 57.1243 335.482 56.3105C335.482 55.7572 335.434 55.2201 335.336 54.6992C331.755 59.5169 327.279 66.6784 321.908 76.1836C321.225 77.3555 320.525 78.4948 319.809 79.6016C318.897 81.2292 317.628 82.4824 316 83.3613C315.284 83.6868 314.568 83.8496 313.852 83.8496C312.615 83.8496 311.475 83.4427 310.434 82.6289C308.839 81.3594 308.041 79.3737 308.041 76.6719V75.793C308.594 70.3242 310.596 65.1647 314.047 60.3145C315.87 57.7428 318.083 55.7897 320.688 54.4551C321.892 53.8366 323.21 53.5111 324.643 53.4785C325.261 53.4785 325.863 53.5436 326.449 53.6738C327.068 53.804 327.556 54.0482 327.914 54.4062C328.305 54.7318 328.679 54.8945 329.037 54.8945C329.623 54.8945 330.176 54.6178 330.697 54.0645C331.218 53.4785 331.69 52.8926 332.113 52.3066L332.553 51.7207C333.074 51.0046 333.643 50.4023 334.262 49.9141C334.913 49.3932 335.596 49.1328 336.312 49.1328C337.712 49.2956 338.591 49.9141 338.949 50.9883C339.307 52.0625 339.486 53.1855 339.486 54.3574C339.486 55.1061 339.454 55.8223 339.389 56.5059L339.34 57.6777C339.275 59.2728 339.161 60.9818 338.998 62.8047C338.803 65.1159 338.705 67.0527 338.705 68.6152C338.705 69.9824 338.868 70.8288 339.193 71.1543C339.324 71.2194 339.486 71.252 339.682 71.252C340.691 71.252 342.514 70.6497 345.15 69.4453C347.82 68.2083 350.521 66.9062 353.256 65.5391L357.113 63.6348C357.374 63.5046 357.634 63.4395 357.895 63.4395C358.578 63.4395 359.132 63.7975 359.555 64.5137C359.685 64.7741 359.75 65.0345 359.75 65.2949C359.75 65.9785 359.392 66.5319 358.676 66.9551L356.82 67.6875C351.189 69.7383 345.72 72.0495 340.414 74.6211L339.486 75.1094C338.607 75.5977 338.103 76.3464 337.973 77.3555L337.338 83.0684C335.873 93.9733 333.855 104.797 331.283 115.539C327.507 132.466 320.915 145.438 311.508 154.455C309.652 156.213 307.536 157.499 305.16 158.312C304.281 158.573 303.386 158.703 302.475 158.703ZM316.342 75.2559C316.732 75.2559 317.449 74.5723 318.49 73.2051C320.085 71.0892 321.208 69.543 321.859 68.5664C322.771 67.1667 324.35 64.6439 326.596 60.998C326.856 60.64 326.986 60.3307 326.986 60.0703C326.986 59.8099 326.84 59.5169 326.547 59.1914C326.286 58.8333 325.961 58.638 325.57 58.6055C324.691 58.6055 323.699 59.3704 322.592 60.9004C319.662 65.1322 317.497 69.7383 316.098 74.7188V75.1094C316.163 75.207 316.244 75.2559 316.342 75.2559ZM303.695 154.895C306.495 154.439 309.018 152.99 311.264 150.549C315.561 145.829 319.011 140.441 321.615 134.387C322.982 131.457 324.154 128.446 325.131 125.354C326.205 122.261 327.165 119.136 328.012 115.979C330.551 105.887 332.455 93.4362 333.725 78.625V78.5273H333.578C330.258 80.5781 327.1 82.8242 324.105 85.2656C312.257 95.1289 304.118 105.09 299.691 115.148C297.022 121.073 295.362 127.242 294.711 133.654C294.548 135.249 294.467 136.828 294.467 138.391C294.467 143.794 295.443 148.205 297.396 151.623C298.764 153.804 300.684 154.895 303.158 154.895H303.695Z" fill="black"/>
<path d="M268.881 84.4355C267.969 84.4355 267.107 84.0775 266.293 83.3613C265.805 82.8079 265.495 82.2057 265.365 81.5547C265.202 80.8711 265.121 79.8457 265.121 78.4785C265.219 77.0137 265.479 75.1257 265.902 72.8145C267.204 65.946 269.206 59.5332 271.908 53.5762C272.689 51.9811 273.227 50.9232 273.52 50.4023C274.919 47.8633 276.156 46.5938 277.23 46.5938C277.979 46.5938 278.646 47.0169 279.232 47.8633C279.623 48.4818 279.818 49.1165 279.818 49.7676C279.818 50.3861 279.721 50.9883 279.525 51.5742C279.33 52.1602 279.135 52.7298 278.939 53.2832C278.646 54.1621 278.37 55.0573 278.109 55.9688C278.077 55.9688 277.768 56.9779 277.182 58.9961L276.254 62.0723C275.375 64.8066 274.936 66.5482 274.936 67.2969C274.936 67.6875 275.017 67.8828 275.18 67.8828C275.603 67.8828 276.221 67.1178 277.035 65.5879C277.947 63.6348 279.07 61.6816 280.404 59.7285C282.064 57.3848 283.871 56.2129 285.824 56.2129C288.754 56.4082 291.114 58.5404 292.904 62.6094C293.881 64.6602 294.743 66.6296 295.492 68.5176L295.785 69.1523C297.25 72.7331 298.91 74.5234 300.766 74.5234C302.589 74.5234 304.656 73.0423 306.967 70.0801L307.992 68.9082L308.529 68.2246C309.115 67.4108 309.848 66.5156 310.727 65.5391C311.638 64.5299 312.484 64.0254 313.266 64.0254C313.559 64.0254 313.852 64.1882 314.145 64.5137C314.438 64.8066 314.584 65.1322 314.584 65.4902C314.584 65.946 314.405 66.3854 314.047 66.8086C313.689 67.2318 313.298 67.6387 312.875 68.0293C312.484 68.3874 311.752 69.1523 310.678 70.3242C308.725 72.4727 306.983 74.1165 305.453 75.2559C303.923 76.3952 302.263 76.9811 300.473 77.0137C295.85 77.0137 291.944 72.7656 288.754 64.2695C288.298 62.9349 287.68 61.7142 286.898 60.6074C286.41 60.0215 285.889 59.7285 285.336 59.7285C284.424 59.7285 283.578 60.3145 282.797 61.4863C280.616 64.7741 277.751 70.666 274.203 79.1621C273.682 80.6921 272.852 82.0592 271.713 83.2637C270.867 84.0449 269.923 84.4355 268.881 84.4355Z" fill="black"/>
<path d="M239.975 85.1191C239.258 85.1191 238.526 84.9727 237.777 84.6797C235.889 83.7682 234.571 82.3359 233.822 80.3828C233.301 78.7878 233.041 77.2904 233.041 75.8906C233.041 74.5234 233.171 73.1888 233.432 71.8867C233.887 69.25 234.571 66.7435 235.482 64.3672C236.426 61.9909 237.533 59.6797 238.803 57.4336L239.975 55.2852C240.593 54.0482 241.358 52.9251 242.27 51.916C243.214 50.8743 244.402 50.2396 245.834 50.0117C246.127 49.9466 246.42 49.9141 246.713 49.9141C248.275 49.9141 249.643 50.5488 250.814 51.8184C252.051 53.2181 252.67 55.5944 252.67 58.9473C252.67 60.5098 252.523 62.1536 252.23 63.8789C252.1 64.4323 252.035 64.9857 252.035 65.5391C252.1 66.3854 252.914 66.8086 254.477 66.8086C255.453 66.8086 256.397 66.7109 257.309 66.5156C261.247 65.9948 264.926 64.888 268.344 63.1953C268.702 63 269.044 62.9023 269.369 62.9023C270.118 62.9023 270.72 63.2767 271.176 64.0254C271.339 64.3509 271.42 64.6602 271.42 64.9531C271.42 65.7344 271.062 66.3529 270.346 66.8086C270.15 66.9388 269.971 67.0039 269.809 67.0039C265.772 67.9479 262.484 68.5827 259.945 68.9082C255.974 69.429 253.484 69.8522 252.475 70.1777C251.791 70.4707 251.254 70.9427 250.863 71.5938C250.245 72.5052 249.643 73.7259 249.057 75.2559C247.982 78.1204 246.599 80.5944 244.906 82.6777L244.711 82.9219C244.516 83.1172 244.288 83.3125 244.027 83.5078C242.79 84.582 241.439 85.1191 239.975 85.1191ZM247.543 66.0762C247.934 66.0762 248.259 65.9622 248.52 65.7344C248.91 65.2786 249.154 64.4486 249.252 63.2441L249.398 61.877C249.594 60.6725 249.691 59.5007 249.691 58.3613C249.691 56.4408 249.268 55.4805 248.422 55.4805C247.901 55.4805 247.234 56.0664 246.42 57.2383C245.736 58.3125 245.118 59.4681 244.564 60.7051C244.011 61.9421 243.734 62.7884 243.734 63.2441C243.832 64.0254 244.304 64.6927 245.15 65.2461C246.029 65.7995 246.827 66.0762 247.543 66.0762ZM240.902 80.8711C241.293 80.8711 241.684 80.7246 242.074 80.4316C243.376 79.4551 244.483 78.1204 245.395 76.4277C245.915 75.4837 246.452 74.3607 247.006 73.0586C247.592 71.724 247.885 70.7311 247.885 70.0801C247.885 69.7871 247.803 69.6081 247.641 69.543C246.762 69.25 245.395 68.599 243.539 67.5898C242.465 67.0365 241.879 66.7598 241.781 66.7598C240.186 70.7637 239.389 74.3607 239.389 77.5508C239.389 78.0065 239.405 78.4134 239.438 78.7715C239.535 80.1712 240.023 80.8711 240.902 80.8711Z" fill="black"/>
<path d="M207.162 85.1191C206.446 85.1191 205.714 84.9727 204.965 84.6797C203.077 83.7682 201.758 82.3359 201.01 80.3828C200.489 78.7878 200.229 77.2904 200.229 75.8906C200.229 74.5234 200.359 73.1888 200.619 71.8867C201.075 69.25 201.758 66.7435 202.67 64.3672C203.614 61.9909 204.721 59.6797 205.99 57.4336L207.162 55.2852C207.781 54.0482 208.546 52.9251 209.457 51.916C210.401 50.8743 211.589 50.2396 213.021 50.0117C213.314 49.9466 213.607 49.9141 213.9 49.9141C215.463 49.9141 216.83 50.5488 218.002 51.8184C219.239 53.2181 219.857 55.5944 219.857 58.9473C219.857 60.5098 219.711 62.1536 219.418 63.8789C219.288 64.4323 219.223 64.9857 219.223 65.5391C219.288 66.3854 220.102 66.8086 221.664 66.8086C222.641 66.8086 223.585 66.7109 224.496 66.5156C228.435 65.9948 232.113 64.888 235.531 63.1953C235.889 63 236.231 62.9023 236.557 62.9023C237.305 62.9023 237.908 63.2767 238.363 64.0254C238.526 64.3509 238.607 64.6602 238.607 64.9531C238.607 65.7344 238.249 66.3529 237.533 66.8086C237.338 66.9388 237.159 67.0039 236.996 67.0039C232.96 67.9479 229.672 68.5827 227.133 68.9082C223.161 69.429 220.671 69.8522 219.662 70.1777C218.979 70.4707 218.441 70.9427 218.051 71.5938C217.432 72.5052 216.83 73.7259 216.244 75.2559C215.17 78.1204 213.786 80.5944 212.094 82.6777L211.898 82.9219C211.703 83.1172 211.475 83.3125 211.215 83.5078C209.978 84.582 208.627 85.1191 207.162 85.1191ZM214.73 66.0762C215.121 66.0762 215.447 65.9622 215.707 65.7344C216.098 65.2786 216.342 64.4486 216.439 63.2441L216.586 61.877C216.781 60.6725 216.879 59.5007 216.879 58.3613C216.879 56.4408 216.456 55.4805 215.609 55.4805C215.089 55.4805 214.421 56.0664 213.607 57.2383C212.924 58.3125 212.305 59.4681 211.752 60.7051C211.199 61.9421 210.922 62.7884 210.922 63.2441C211.02 64.0254 211.492 64.6927 212.338 65.2461C213.217 65.7995 214.014 66.0762 214.73 66.0762ZM208.09 80.8711C208.48 80.8711 208.871 80.7246 209.262 80.4316C210.564 79.4551 211.671 78.1204 212.582 76.4277C213.103 75.4837 213.64 74.3607 214.193 73.0586C214.779 71.724 215.072 70.7311 215.072 70.0801C215.072 69.7871 214.991 69.6081 214.828 69.543C213.949 69.25 212.582 68.599 210.727 67.5898C209.652 67.0365 209.066 66.7598 208.969 66.7598C207.374 70.7637 206.576 74.3607 206.576 77.5508C206.576 78.0065 206.592 78.4134 206.625 78.7715C206.723 80.1712 207.211 80.8711 208.09 80.8711Z" fill="black"/>
<path d="M146.371 92.1504C146.111 92.1504 145.85 92.1178 145.59 92.0527C144.581 91.7272 143.799 91.0436 143.246 90.002C142.107 87.9837 141.537 85.1517 141.537 81.5059C141.537 79.6178 141.684 77.7298 141.977 75.8418C143.246 67.8991 145.574 60.6562 148.959 54.1133L149.252 53.5273C149.708 52.7135 150.245 51.8021 150.863 50.793C152.523 48.1888 154.118 46.8867 155.648 46.8867C156.299 46.8867 156.951 47.1309 157.602 47.6191C158.35 48.3353 158.725 49.1328 158.725 50.0117C158.725 50.793 158.578 51.5905 158.285 52.4043L158.139 52.9414C157.325 55.7083 156.479 58.4753 155.6 61.2422C154.428 65.0182 153.354 68.8268 152.377 72.668C152.247 73.2865 152.182 73.791 152.182 74.1816C152.182 74.8978 152.344 75.2559 152.67 75.2559C152.963 75.2559 153.321 74.9141 153.744 74.2305C154.753 72.3424 156.299 69.2012 158.383 64.8066C159.587 62.0072 160.922 59.2891 162.387 56.6523L162.533 56.3594C163.021 55.3503 163.673 54.4714 164.486 53.7227C165.105 53.2018 165.723 52.9414 166.342 52.9414C167.579 52.9414 168.523 53.7227 169.174 55.2852C169.825 57.2383 170.297 59.2565 170.59 61.3398C172.641 74.0352 175.538 81.1966 179.281 82.8242L179.916 82.9219C180.958 82.9219 181.837 82.3359 182.553 81.1641C183.367 79.4062 183.822 77.5345 183.92 75.5488C184.018 74.4421 184.066 73.2376 184.066 71.9355C184.066 69.3314 183.887 66.7109 183.529 64.0742C183.464 63.8464 183.432 63.6348 183.432 63.4395C182.976 60.6725 182.276 57.9544 181.332 55.2852C180.714 53.5599 180.404 52.2415 180.404 51.3301C180.404 50.2559 180.893 49.6699 181.869 49.5723C182.585 49.7676 183.074 50.207 183.334 50.8906C183.594 51.5417 183.757 52.2253 183.822 52.9414C184.278 55.7734 185.466 58.4427 187.387 60.9492C189.177 63.3255 191.423 64.9206 194.125 65.7344C194.971 65.9622 195.834 66.0762 196.713 66.0762C198.894 66.0762 201.449 65.4414 204.379 64.1719L204.77 64.0742C205.225 64.0742 205.502 64.3509 205.6 64.9043C205.6 65.1647 205.486 65.4089 205.258 65.6367C204.444 66.2227 203.598 66.776 202.719 67.2969C200.44 68.5013 198.21 69.1035 196.029 69.1035C195.15 69.1035 194.271 69.0059 193.393 68.8105C191.146 68.2572 189.226 67.248 187.631 65.7832C187.533 65.6855 187.419 65.6367 187.289 65.6367C187.094 65.6367 186.898 65.7669 186.703 66.0273C186.54 66.2552 186.459 66.4668 186.459 66.6621C186.492 67.3457 186.557 68.0293 186.654 68.7129C186.719 69.7871 186.752 70.8451 186.752 71.8867V73.0586C186.622 76.0208 186.068 78.5762 185.092 80.7246C183.822 83.5241 181.869 84.9238 179.232 84.9238C176.856 84.8913 174.919 83.6868 173.422 81.3105C172.217 79.5853 171.257 77.7786 170.541 75.8906C168.555 71.0404 167.188 66.0111 166.439 60.8027C166.179 59.11 165.788 58.2637 165.268 58.2637C164.779 58.2637 164.128 59.11 163.314 60.8027C161.817 64.0905 160.352 67.3783 158.92 70.666C156.576 76.2324 154.021 81.7174 151.254 87.1211C150.928 87.8047 150.505 88.5697 149.984 89.416C148.845 91.2389 147.641 92.1504 146.371 92.1504Z" fill="black"/>
<path d="M102.328 80.5293C101.677 80.5293 101.042 80.4154 100.424 80.1875C99.3822 79.8294 98.5033 79.2272 97.7871 78.3809C96.2572 76.623 95.4922 74.3281 95.4922 71.4961C95.4922 70.5195 95.5898 69.5755 95.7852 68.6641C96.5013 65.0182 97.8522 61.5677 99.8379 58.3125C101.107 55.9036 102.751 53.7064 104.77 51.7207C105.388 51.1999 106.055 50.9395 106.771 50.9395C107.585 50.9395 108.318 51.265 108.969 51.916C109.457 52.5345 109.701 53.2344 109.701 54.0156C109.701 55.6758 108.692 58.4264 106.674 62.2676C106.218 63.1465 105.779 64.0417 105.355 64.9531C103.891 67.8828 102.849 70.9427 102.23 74.1328L102.133 74.8652C102.133 75.1582 102.214 75.4349 102.377 75.6953C102.637 76.0859 102.963 76.2812 103.354 76.2812C104.102 76.2812 105.128 75.7441 106.43 74.6699L106.625 74.5234C109.327 72.2773 111.898 69.1523 114.34 65.1484C117.595 60.3307 119.516 57.4173 120.102 56.4082C121.924 53.0228 123.471 51.3301 124.74 51.3301C125.359 51.3301 125.863 51.6882 126.254 52.4043C126.352 52.6647 126.4 52.9577 126.4 53.2832C126.4 53.9342 126.286 54.6178 126.059 55.334L125.814 56.2617C125.196 59.3216 124.691 62.4141 124.301 65.5391V65.6367C124.171 66.6784 124.105 67.7201 124.105 68.7617C124.105 70.194 124.398 71.5775 124.984 72.9121C125.701 74.2467 126.84 74.9141 128.402 74.9141C129.249 74.9141 130.111 74.735 130.99 74.377C134.083 73.2702 137.598 70.9264 141.537 67.3457C142.611 66.4668 143.62 65.5391 144.564 64.5625C145.085 64.0417 145.622 63.7812 146.176 63.7812C146.566 63.7812 146.908 63.944 147.201 64.2695C147.527 64.5951 147.689 64.9368 147.689 65.2949C147.689 65.9785 147.234 66.7272 146.322 67.541L145.639 68.1758C141.049 72.5052 137.273 75.4186 134.311 76.916C132.423 77.8926 130.404 78.446 128.256 78.5762C126.889 78.5762 125.733 78.2507 124.789 77.5996C123.845 76.9486 123.064 76.1022 122.445 75.0605C121.859 73.9863 121.387 72.7982 121.029 71.4961C120.801 70.3893 120.688 69.2337 120.688 68.0293V67.1992C120.688 66.3854 120.655 65.7018 120.59 65.1484C120.557 64.5951 120.395 64.3184 120.102 64.3184C119.711 64.3184 118.93 65.1322 117.758 66.7598C116.13 69.1361 114.356 71.431 112.436 73.6445L111.85 74.2793C111.036 75.1582 110.124 76.0859 109.115 77.0625C108.106 78.0065 107.016 78.8203 105.844 79.5039C104.704 80.1875 103.533 80.5293 102.328 80.5293Z" fill="black"/>
<path d="M26.5469 143.371C22.0547 143.371 18.0996 142.167 14.6816 139.758C11.7845 137.479 9.37565 134.875 7.45508 131.945C3.38607 126.053 1.05859 119.543 0.472656 112.414L0.423828 110.51C0.423828 107.32 0.814453 104.162 1.5957 101.037C4.06966 91.4993 10.2546 83.8008 20.1504 77.9414C27.0514 73.7096 34.9128 70.5195 43.7344 68.3711C52.1328 66.2878 60.6615 64.7578 69.3203 63.7812C70.1016 63.6836 70.5736 63.2604 70.7363 62.5117C70.9316 61.763 71.0944 61.0306 71.2246 60.3145C73.2428 50.4512 74.8379 39.3184 76.0098 26.916C76.4655 21.8053 77.0514 16.6621 77.7676 11.4863L77.8164 11.0469C77.8164 9.77734 76.9375 8.94727 75.1797 8.55664C74.0729 8.32878 72.5592 8.21484 70.6387 8.21484C66.8626 8.21484 62.5007 8.49154 57.5527 9.04492C46.9082 10.2819 37.3704 11.9095 28.9395 13.9277C28.6465 14.0254 28.5 14.1719 28.5 14.3672C28.5 14.6276 28.7116 14.9206 29.1348 15.2461C29.5905 15.5716 30.0625 15.7832 30.5508 15.8809C31.2669 16.1087 31.625 16.5482 31.625 17.1992V17.3945C31.4297 18.2083 30.4694 18.6152 28.7441 18.6152C27.8652 18.6152 27.0677 18.5664 26.3516 18.4688L25.9609 18.4199C23.3568 18.2897 21.6152 17.541 20.7363 16.1738C20.5736 15.8158 20.4922 15.474 20.4922 15.1484C20.4922 13.7487 21.599 12.6419 23.8125 11.8281L24.0566 11.7305C25.4238 11.2096 26.7585 10.8027 28.0605 10.5098C33.334 9.20768 38.6237 8.16602 43.9297 7.38477C54.5091 5.78971 65.1211 4.53646 75.7656 3.625L82.8457 3.08789C94.6296 2.17643 102.93 1.62305 107.748 1.42773C110.222 1.33008 112.68 1.18359 115.121 0.988281C119.776 0.66276 123.894 0.5 127.475 0.5C128.939 0.5 130.421 0.532552 131.918 0.597656L133.773 0.744141C134.848 0.744141 135.889 0.874349 136.898 1.13477C137.94 1.36263 138.933 1.94857 139.877 2.89258C140.17 3.2181 140.316 3.57617 140.316 3.9668C140.316 4.35742 140.154 4.73177 139.828 5.08984L139.486 5.38281C138.282 5.96875 137.11 6.26172 135.971 6.26172C135.255 6.26172 134.522 6.21289 133.773 6.11523C133.057 5.98503 132.325 5.91992 131.576 5.91992L123.715 5.23633C119.288 4.81315 114.844 4.60156 110.385 4.60156L107.846 4.65039C104.688 4.74805 101.384 5.02474 97.9336 5.48047C94.5156 5.9362 91.651 6.53841 89.3398 7.28711C88.9492 7.41732 88.5586 7.51497 88.168 7.58008C87.3867 7.71029 86.6868 7.98698 86.0684 8.41016C85.4499 8.80078 85.0267 9.63086 84.7988 10.9004C84.1152 15.7507 83.5293 20.666 83.041 25.6465C81.804 38.8301 79.8021 51.0208 77.0352 62.2188L76.9863 62.4141C76.9863 62.6094 77.0677 62.7884 77.2305 62.9512C77.3932 63.0814 77.5885 63.1465 77.8164 63.1465C79.7044 63.0488 81.5436 63 83.334 63C88.6725 63 93.9622 63.4069 99.2031 64.2207C99.6589 64.3184 100.001 64.5299 100.229 64.8555C100.456 65.181 100.57 65.5391 100.57 65.9297C100.57 66.6133 100.196 67.1341 99.4473 67.4922C99.2194 67.5573 99.0078 67.5898 98.8125 67.5898C98.3893 67.5898 97.9499 67.5085 97.4941 67.3457C94.1413 66.5319 90.7233 66.0599 87.2402 65.9297C85.7103 65.832 83.513 65.7832 80.6484 65.7832C77.8815 65.7832 76.4167 65.9134 76.2539 66.1738C74.9844 70.8613 73.5358 75.5163 71.9082 80.1387L71.5664 81.2129C70.9154 83.2637 70.1992 85.3145 69.418 87.3652L68.1973 90.7832L64.4375 100.207L60.3848 109.484C59.4408 111.405 58.4642 113.326 57.4551 115.246L55.7949 118.469C54.2975 121.529 52.6048 124.507 50.7168 127.404C46.3548 134.045 41.2767 138.732 35.4824 141.467C32.6178 142.736 29.6393 143.371 26.5469 143.371ZM26.8398 140.295C29.3789 140.295 31.8366 139.742 34.2129 138.635C37.0775 137.268 39.6328 135.428 41.8789 133.117C46.3711 128.43 49.9518 123.042 52.6211 116.955L53.7441 114.27L56.5762 107.775L60.3359 98.5469C61.4753 95.4219 62.582 92.2806 63.6562 89.123L64.8281 85.2656C65.4466 83.4102 66.0163 81.5384 66.5371 79.6504L67.1719 77.4531C67.8555 74.9792 68.4902 72.5052 69.0762 70.0312L69.7598 67.1504C69.7598 66.6296 69.5482 66.3691 69.125 66.3691C61.931 67.1178 55.3555 68.306 49.3984 69.9336C46.2409 70.8776 43.1159 71.9844 40.0234 73.2539L39.1934 73.5469C33.2689 75.6953 27.556 78.2507 22.0547 81.2129C15.6419 84.696 10.8242 88.8626 7.60156 93.7129C4.76953 98.2051 3.35352 102.941 3.35352 107.922C3.35352 109.322 3.46745 110.705 3.69531 112.072C4.67188 118.518 6.95052 124.442 10.5312 129.846C14.6654 136.031 19.5482 139.481 25.1797 140.197C25.7656 140.262 26.319 140.295 26.8398 140.295Z" fill="black"/>
</svg>
